<svg width="500" height="127" viewBox="0 0 500 127" fill="none" xmlns="http://www.w3.org/2000/svg">
<path d="M266.274 85.0241L227.868 3.17029H307.095L266.274 85.0241Z" fill="#F6931E"/>
<path d="M358.847 84.8128H279.74L318.176 3.01929C331.914 30.6461 345.32 57.6086 358.847 84.8128Z" fill="#F6931E"/>
<path d="M385.296 3.56279C395.411 3.56279 405.525 3.56279 415.489 3.56279C417.905 3.56279 418.659 4.19684 418.508 6.58211C418.327 10.2959 418.508 14.0096 418.508 17.7234C418.508 19.8973 417.935 20.7427 415.64 20.5616C410.719 20.3804 405.767 20.5616 400.845 20.5616C398.128 20.5616 397.343 21.2258 397.373 23.9432C397.373 42.9046 397.373 61.8357 397.373 80.7669C397.373 83.7862 396.679 84.6618 393.629 84.5109C388.225 84.2693 382.76 84.2391 377.355 84.5109C374.336 84.5109 374.034 83.5447 374.034 81.0386C374.034 62.1981 374.034 43.3877 374.275 24.5773C374.275 21.558 373.671 20.3502 370.35 20.5314C364.946 20.8333 359.511 20.5314 354.076 20.5314C352.234 20.5314 351.51 19.9577 351.57 18.0555C351.57 14.221 351.751 10.3865 351.57 6.55192C351.57 4.16665 352.295 3.53259 354.589 3.53259C365.036 3.62317 375.151 3.56279 385.296 3.56279Z" fill="#254C7C"/>
<path d="M79.0157 43.6593C79.0157 31.582 79.0157 19.233 79.0157 7.00475C79.0157 4.31755 79.4988 3.2004 82.5181 3.32118C88.0435 3.59292 93.5991 3.53253 99.1244 3.32118C101.751 3.32118 102.144 4.1062 102.144 6.55185C102.144 25.483 102.144 44.4142 101.993 63.3453C101.993 66.3646 102.627 67.1799 105.707 67.1195C117.995 66.9383 130.284 67.1195 142.572 67.1195C144.807 67.1195 145.803 67.5724 145.592 70.1388C145.396 73.9708 145.396 77.8104 145.592 81.6424C145.592 83.9371 144.807 84.39 142.572 84.39C122.444 84.39 102.214 84.39 81.8841 84.39C79.3177 84.39 78.6534 83.7257 78.6836 81.1895C78.6836 68.7499 78.6836 56.2801 78.6836 43.8103L79.0157 43.6593Z" fill="#254C7C"/>
<path d="M38.4058 20.0181C28.5326 20.0181 18.6292 20.0181 8.75603 20.0181C5.73671 20.0181 4.8611 19.0821 5.07246 16.1835C5.314 12.4698 5.22342 8.75601 5.07246 5.04224C5.07246 3.26084 5.64613 2.83813 7.33695 2.83813C28.1099 2.95891 48.8124 3.01929 69.4444 3.01929C71.2258 3.01929 71.7391 3.56277 71.6787 5.25359C71.6787 9.20891 71.4976 13.1944 71.6787 17.1497C71.6787 19.535 71.0145 20.1691 68.6594 20.1691C58.6655 19.9577 48.5507 20.0181 38.4058 20.0181Z" fill="#254C7C"/>
<path d="M38.4058 51.8115C28.2911 51.8115 18.2065 51.8115 8.21256 51.8115C5.85749 51.8115 5.19324 51.1775 5.19324 48.7922C5.40459 44.9577 5.3442 41.1231 5.19324 37.2886C5.19324 35.4166 5.46498 34.541 7.69928 34.541C28.2709 34.541 48.8426 34.541 69.4143 34.541C71.3164 34.541 71.9505 35.0543 71.8901 36.9565C71.8901 41.0326 71.7391 45.1086 71.8901 49.0338C71.8901 51.1473 71.1051 51.6002 69.1727 51.57C58.8768 51.7512 48.6413 51.8115 38.4058 51.8115Z" fill="#254C7C"/>
<path d="M461.232 35.326C471.256 35.326 481.25 35.326 491.244 35.326C493.69 35.326 494.263 36.0506 494.263 38.3453C494.082 42.3006 494.263 46.256 494.263 50.2113C494.263 51.9323 493.75 52.506 491.999 52.4758C471.286 52.4758 450.554 52.4758 429.801 52.4758C427.989 52.4758 427.536 51.7511 427.566 50.1207C427.566 46.0446 427.566 41.9685 427.566 37.8924C427.566 35.7789 428.231 35.2958 430.223 35.326C440.489 35.3864 450.876 35.326 461.232 35.326Z" fill="#254C7C"/>
<path d="M186.866 67.8744C196.86 67.8744 206.854 67.8744 216.878 67.8744C219.293 67.8744 220.32 68.3877 220.139 70.8937C219.912 74.604 219.912 78.3247 220.139 82.035C220.139 84.5411 219.293 85.0543 217.12 85.0543C196.87 85.0543 176.61 85.0543 156.341 85.0543C154.227 85.0543 153.321 84.6316 153.472 82.3068C153.653 78.4722 153.653 74.6075 153.472 70.8031C153.321 68.3273 154.257 67.7838 156.491 67.7838C166.636 67.7838 176.751 67.7838 186.896 67.7838L186.866 67.8744Z" fill="#254C7C"/>
<path d="M460.87 68.0556C470.984 68.0556 481.099 68.0556 491.214 68.0556C493.629 68.0556 494.233 68.75 494.233 71.0749C494.052 75 494.233 78.9855 494.233 82.9106C494.233 84.692 493.659 85.145 491.969 85.145C471.256 85.145 450.533 85.145 429.801 85.145C428.11 85.145 427.506 84.6619 427.536 82.9106C427.536 78.9553 427.717 75 427.536 71.0447C427.536 68.5991 428.291 68.0254 430.556 68.0254C440.64 68.116 450.755 68.0556 460.87 68.0556Z" fill="#254C7C"/>
<path d="M187.198 52.0833C177.083 52.0833 166.969 52.0833 156.854 52.0833C154.469 52.0833 153.382 51.6907 153.533 49.0639C153.774 45.3502 153.684 41.6364 153.533 37.9226C153.533 36.0507 153.804 35.1449 156.039 35.175C176.993 35.175 197.957 35.175 218.931 35.175C221.045 35.175 221.588 35.8695 221.498 37.8622C221.498 41.6968 221.498 45.5313 221.498 49.3659C221.498 51.6606 220.743 52.1738 218.478 52.1738C208.001 52.1738 197.343 52.1738 187.017 52.1738L187.198 52.0833Z" fill="#254C7C"/>
<path d="M461.232 3.59302C471.226 3.59302 481.22 3.59302 491.214 3.59302C493.569 3.59302 494.233 4.22708 494.233 6.61234C494.052 10.5375 494.233 14.4928 494.233 18.4481C494.233 20.1691 493.75 20.7428 491.999 20.7428C471.286 20.7428 450.584 20.7428 429.891 20.7428C427.808 20.7428 427.536 19.8672 427.566 18.1462C427.566 14.221 427.566 10.2657 427.566 6.31041C427.566 4.19688 428.291 3.74398 430.254 3.77418C440.55 3.62321 450.906 3.59302 461.232 3.59302Z" fill="#254C7C"/>
<path d="M186.715 20.32C176.721 20.32 166.727 20.32 156.703 20.32C154.318 20.32 153.261 19.9275 153.412 17.3007C153.653 13.6171 153.412 9.87314 153.412 6.15937C153.412 4.28739 153.744 3.38159 155.948 3.38159C176.54 3.38159 197.142 3.38159 217.754 3.38159C219.777 3.38159 220.139 4.16662 220.109 5.94802C220.109 9.90333 220.109 13.8586 220.109 17.814C220.109 19.9577 219.354 20.3502 217.421 20.3502C207.156 20.3502 196.92 20.3502 186.685 20.3502L186.715 20.32Z" fill="#254C7C"/>
<path d="M38.7681 67.5724C48.7922 67.5724 58.7862 67.5724 68.7802 67.5724C71.1654 67.5724 71.7995 68.2064 71.7995 70.5917C71.5881 74.4263 71.6485 78.2608 71.7995 82.0953C71.7995 83.9069 71.407 84.6014 69.4142 84.6014C48.7822 84.6014 28.1703 84.6014 7.57847 84.6014C5.70649 84.6014 5.04224 84.0881 5.13282 82.1859C5.13282 78.4721 5.34417 74.7584 5.13282 71.0446C4.98185 68.4178 5.6763 67.5724 8.45407 67.6328C18.5084 67.663 28.6533 67.5724 38.7681 67.5724Z" fill="#254C7C"/>
<path d="M307.971 118.569C309.179 113.406 310.356 109.148 310.99 104.831C311.624 101.298 314.191 102.748 316.063 102.566C318.418 102.325 317.935 104.197 317.935 105.586C317.935 110.477 317.935 115.398 317.935 120.29C317.935 121.83 318.267 123.309 315.7 123.309C313.134 123.309 313.798 121.709 313.798 120.29C313.846 116.409 313.685 112.529 313.315 108.665C312.319 112.681 311.262 116.667 310.296 120.743C309.964 122.403 309.45 123.219 307.578 123.219C305.706 123.219 305.193 122.403 304.861 120.743C304.059 116.639 302.949 112.602 301.54 108.665V120.743C301.54 122.071 301.751 123.309 299.638 123.309C297.524 123.309 297.403 122.162 297.434 120.592C297.434 115.429 297.434 110.296 297.434 105.133C297.434 103.804 297.434 102.113 299.336 102.536C301.238 102.959 303.623 101.208 304.348 104.438C305.586 108.877 306.673 113.285 307.971 118.569Z" fill="#274E7D"/>
<path d="M160.839 117.965C160.839 118.931 160.839 119.867 160.839 120.984C160.839 122.101 161.322 123.068 159.934 123.339C159.028 123.551 158.092 123.611 157.729 122.222C157.367 120.833 156.733 122.041 156.25 122.222C154.383 123.579 152.069 124.172 149.779 123.88C147.49 123.589 145.398 122.434 143.931 120.652C142.3 118.416 141.441 115.71 141.485 112.943C141.529 110.175 142.472 107.497 144.173 105.314C145.812 103.642 147.95 102.549 150.265 102.2C152.581 101.852 154.946 102.266 157.005 103.382C158.028 104.013 158.904 104.857 159.571 105.857C160.145 106.703 161.504 108.031 160.085 108.877C159.491 109.306 158.752 109.484 158.028 109.37C157.304 109.257 156.654 108.863 156.22 108.273C155.905 107.68 155.473 107.157 154.951 106.735C154.429 106.313 153.827 106.002 153.181 105.818C152.535 105.635 151.859 105.584 151.193 105.669C150.527 105.753 149.885 105.971 149.306 106.31C146.075 107.79 145.984 110.96 146.045 114.07C145.938 115.335 146.266 116.599 146.974 117.652C147.682 118.706 148.728 119.487 149.94 119.867C150.847 120.209 151.833 120.288 152.783 120.096C153.734 119.904 154.611 119.448 155.314 118.78C156.039 118.146 156.824 117.301 156.552 116.334C156.28 115.368 155.133 115.791 154.378 115.791C153.05 115.791 152.053 115.64 152.053 113.889C152.053 112.138 153.382 112.319 154.529 112.258C154.639 112.243 154.751 112.243 154.861 112.258C160.839 112.077 160.839 112.077 160.839 117.965Z" fill="#264C7C"/>
<path d="M484.028 102.083C485.482 101.88 486.963 102.076 488.314 102.651C489.665 103.225 490.835 104.156 491.697 105.344C492.271 106.25 493.388 107.76 492.21 108.363C491.908 108.607 491.556 108.782 491.179 108.877C490.803 108.971 490.41 108.983 490.028 108.911C489.647 108.84 489.285 108.686 488.969 108.461C488.652 108.236 488.388 107.945 488.195 107.609C486.896 105.193 484.662 105.465 482.488 105.827C481.943 105.886 481.44 106.144 481.072 106.55C480.705 106.956 480.499 107.484 480.495 108.031C480.495 109.179 481.371 109.722 482.307 109.994C484.511 110.598 486.745 111.051 488.949 111.685C490.144 111.896 491.231 112.507 492.032 113.418C492.833 114.329 493.301 115.485 493.358 116.697C493.464 117.952 493.174 119.21 492.53 120.293C491.886 121.375 490.919 122.23 489.765 122.735C485.387 125 478.684 123.581 476.812 119.958C476.329 118.992 475.211 117.542 476.812 116.938C478.412 116.335 479.831 115.912 480.556 117.784C481.945 120.803 484.571 120.35 487.077 119.897C487.616 119.835 488.116 119.587 488.491 119.196C488.865 118.804 489.092 118.294 489.13 117.754C489.13 116.395 488.225 115.851 487.168 115.549C485.447 115.036 483.666 114.734 481.914 114.251C477.778 113.164 476.147 111.232 476.48 107.88C476.66 106.266 477.44 104.778 478.664 103.711C479.888 102.643 481.468 102.073 483.092 102.113L484.028 102.083Z" fill="#264D7C"/>
<path d="M121.135 110.266C121.135 113.828 121.135 117.391 121.135 120.984C121.135 122.584 120.773 123.369 118.931 123.339C117.089 123.309 117.089 122.343 117.089 121.045C117.089 115.882 117.089 110.749 117.089 105.586C117.089 104.469 116.244 102.747 118.478 102.566C120.169 102.566 121.709 102.415 122.705 104.378C124.517 107.88 126.6 111.232 128.563 114.674C128.774 115.036 128.925 115.58 129.921 115.398C129.921 112.077 129.921 108.665 129.921 105.254C129.921 103.653 129.921 102.446 132.126 102.506C134.33 102.566 133.907 103.985 133.907 105.254C133.907 110.266 133.907 115.308 133.907 120.35C133.907 121.377 134.722 123.007 132.88 123.369C131.039 123.732 129.831 123.792 128.623 121.618C126.51 117.663 124.124 113.828 121.86 109.933L121.135 110.266Z" fill="#254C7C"/>
<path d="M274.245 112.107C274.607 109.39 272.735 104.982 274.97 103.049C277.204 101.117 281.19 102.657 284.42 102.657H288.043C289.372 102.657 289.553 103.472 289.553 104.529C289.553 105.586 289.372 106.431 288.043 106.431C285.628 106.431 283.213 106.431 280.797 106.431C279.106 106.431 278.502 106.944 278.502 108.665C278.502 110.386 279.257 110.93 280.888 110.87C282.518 110.809 284.511 110.87 286.322 110.87C287.5 110.87 288.708 110.628 288.738 112.56C288.768 114.493 287.56 114.553 286.171 114.523C284.783 114.493 283.152 114.523 281.461 114.523C279.438 114.523 278.442 114.734 278.442 117.18C278.442 119.626 279.438 119.897 281.461 119.807C283.484 119.716 286.02 119.807 288.315 119.807C289.764 119.807 290.157 120.35 290.157 121.709C290.157 123.068 289.644 123.611 288.255 123.581C284.179 123.581 280.072 123.581 275.966 123.581C274.456 123.581 274.185 122.856 274.215 121.588C274.275 118.448 274.245 115.549 274.245 112.107Z" fill="#274D7D"/>
<path d="M236.051 123.792C234.497 123.991 232.919 123.738 231.505 123.063C230.092 122.388 228.902 121.321 228.08 119.988C227.597 119.082 226.359 117.603 228.08 116.969C229.167 116.546 230.918 116.002 231.793 117.905C233.092 120.743 235.658 120.411 238.043 120.048C238.66 120.017 239.241 119.748 239.663 119.297C240.085 118.847 240.317 118.25 240.308 117.633C240.308 116.274 239.281 115.791 238.255 115.489C236.081 114.825 233.786 114.463 231.643 113.738C230.734 113.442 229.913 112.924 229.253 112.232C228.594 111.54 228.117 110.694 227.866 109.772C227.614 108.85 227.596 107.88 227.813 106.949C228.029 106.018 228.474 105.155 229.106 104.438C231.046 102.717 233.586 101.831 236.176 101.972C238.765 102.114 241.194 103.271 242.935 105.193C243.569 106.159 244.595 107.669 243.569 108.213C243.274 108.467 242.927 108.654 242.552 108.761C242.177 108.867 241.784 108.891 241.399 108.831C241.014 108.771 240.647 108.628 240.323 108.411C239.999 108.195 239.726 107.911 239.523 107.578C238.406 105.465 236.504 105.465 234.541 105.586C233.934 105.549 233.333 105.729 232.847 106.094C232.36 106.459 232.019 106.985 231.884 107.578C231.612 109.058 232.729 109.692 233.998 110.024L238.889 111.292C243.418 112.47 244.928 114.312 244.626 117.723C244.402 119.43 243.552 120.993 242.241 122.109C240.93 123.225 239.251 123.814 237.53 123.762C237.017 123.792 236.534 123.792 236.051 123.792Z" fill="#264D7C"/>
<path d="M83.907 110.356C88.5266 107.85 89.9457 100.876 96.9203 102.808C95.0859 105.291 92.9568 107.541 90.5797 109.511C89.2512 110.779 89.221 111.594 90.3382 113.013C92.814 116.033 95.1389 119.505 97.5845 122.856C96.9021 123.207 96.1545 123.413 95.3887 123.46C94.6228 123.507 93.8555 123.396 93.135 123.132C92.4145 122.868 91.7565 122.458 91.2024 121.927C90.6483 121.396 90.2101 120.757 89.9155 120.048C89.3564 118.955 88.6559 117.94 87.8321 117.029C87.1377 116.214 86.8961 114.402 85.4771 114.855C84.058 115.308 84.058 117.029 83.7862 118.478C83.5145 119.928 85.6884 123.188 81.5821 123.219C80.0121 123.219 79.4686 122.735 79.4988 121.165C79.4988 115.67 79.4988 110.145 79.4988 104.65C79.4988 103.261 79.7102 102.355 81.4312 102.385C83.1522 102.415 84.0278 102.597 83.907 104.529C83.7862 106.461 83.907 108.182 83.907 110.356Z" fill="#264D7C"/>
<path d="M196.498 108.696C194.535 108.907 192.874 109.511 191.516 107.156C190.459 105.284 188.134 105.706 186.232 106.099C185.749 106.177 185.309 106.422 184.989 106.792C184.668 107.162 184.489 107.633 184.481 108.122C184.435 108.603 184.571 109.083 184.861 109.469C185.152 109.854 185.576 110.117 186.051 110.205C188.496 110.9 190.972 111.322 193.358 112.168C194.246 112.451 195.05 112.95 195.698 113.62C196.347 114.29 196.819 115.111 197.073 116.008C197.328 116.905 197.356 117.851 197.155 118.761C196.954 119.672 196.531 120.519 195.924 121.226C192.814 125 184.179 124.879 181.159 120.773C180.344 119.626 179.287 117.995 180.767 117.059C181.082 116.817 181.45 116.655 181.841 116.586C182.232 116.516 182.634 116.542 183.013 116.66C183.392 116.779 183.736 116.986 184.018 117.266C184.3 117.546 184.51 117.889 184.632 118.267C184.862 118.828 185.256 119.306 185.762 119.64C186.268 119.974 186.863 120.148 187.47 120.139C189.583 120.139 192.331 120.803 192.844 117.995C193.358 115.187 190.55 115.519 188.829 114.976C187.108 114.432 185.537 114.221 183.967 113.617C183.114 113.327 182.344 112.833 181.725 112.178C181.105 111.524 180.654 110.728 180.41 109.86C180.166 108.992 180.137 108.078 180.326 107.197C180.514 106.315 180.914 105.493 181.492 104.801C183.967 101.54 187.53 101.781 191.033 102.295C192.597 102.441 194.044 103.191 195.064 104.386C196.084 105.581 196.599 107.127 196.498 108.696Z" fill="#264D7C"/>
<path d="M341.908 108.696C340.006 108.907 338.345 109.541 336.956 107.186C335.568 104.831 333.363 105.676 331.341 106.22C330.93 106.329 330.565 106.566 330.298 106.898C330.032 107.229 329.879 107.637 329.861 108.062C329.8 108.548 329.929 109.04 330.221 109.434C330.514 109.828 330.947 110.093 331.431 110.175C333.605 110.809 335.839 111.262 338.043 111.866C339.303 112.064 340.453 112.699 341.292 113.659C342.131 114.62 342.606 115.845 342.633 117.12C342.702 118.436 342.337 119.74 341.596 120.83C340.854 121.92 339.776 122.738 338.527 123.158C336.515 124.027 334.289 124.273 332.136 123.864C329.983 123.455 328.002 122.41 326.449 120.864C325.634 119.716 324.547 118.116 325.996 117.12C326.307 116.877 326.672 116.712 327.059 116.639C327.447 116.565 327.846 116.586 328.224 116.698C328.602 116.81 328.948 117.011 329.233 117.284C329.518 117.557 329.733 117.894 329.861 118.267C330.211 118.974 330.777 119.552 331.478 119.915C332.178 120.279 332.976 120.41 333.756 120.29C335.568 120.29 337.742 120.29 338.134 118.116C338.527 115.942 336.171 115.61 334.511 115.097C332.85 114.583 330.978 114.312 329.287 113.708C328.406 113.413 327.612 112.902 326.978 112.223C326.344 111.543 325.89 110.716 325.656 109.817C325.422 108.917 325.416 107.974 325.639 107.071C325.862 106.169 326.306 105.337 326.932 104.65C328.155 103.383 329.719 102.501 331.435 102.109C333.151 101.718 334.944 101.835 336.594 102.446C338.104 102.627 339.49 103.371 340.475 104.53C341.461 105.688 341.972 107.176 341.908 108.696Z" fill="#264D7C"/>
<path d="M432.82 112.953C432.82 110.205 432.82 107.458 432.82 104.68C432.82 103.14 433.394 102.536 434.934 102.566C438.527 102.566 442.15 102.566 445.743 102.566C447.222 102.566 447.947 102.929 447.917 104.589C447.887 106.25 447.132 106.371 445.864 106.341C444.305 106.25 442.742 106.25 441.184 106.341C439.493 106.492 437.168 105.344 437.198 108.756C437.228 112.168 439.463 110.779 440.972 110.93C442.299 111.036 443.631 111.036 444.958 110.93C446.316 110.93 446.498 111.655 446.498 112.772C446.498 113.889 446.498 114.583 444.988 114.613C442.603 114.613 439.614 113.889 437.953 115.036C436.292 116.184 437.47 119.505 437.258 121.86C437.108 123.551 435.96 123.219 434.934 123.249C433.907 123.279 432.82 123.068 432.82 121.558C432.85 118.72 432.82 115.821 432.82 112.953Z" fill="#294F7E"/>
<path d="M212.168 110.93C215.429 108.303 213.919 101.027 221.226 102.808C220.169 104.861 219.263 106.793 218.206 108.605C215.442 112.273 214.121 116.829 214.493 121.407C214.764 123.098 213.647 123.339 212.258 123.309C210.87 123.279 209.692 123.158 209.994 121.437C211.081 115.399 206.975 110.809 204.68 105.857C204.197 104.891 202.295 103.533 204.016 102.838C204.424 102.571 204.887 102.398 205.37 102.331C205.854 102.265 206.346 102.307 206.812 102.455C207.277 102.602 207.704 102.851 208.061 103.184C208.418 103.516 208.697 103.924 208.877 104.378C209.934 106.552 211.111 108.696 212.168 110.93Z" fill="#284F7E"/>
<path d="M459.45 114.493C459.45 113.557 459.45 112.59 459.45 111.473C459.722 108.212 459.964 105.072 454.952 106.129C453.502 106.431 453.14 105.374 453.17 104.136C453.2 102.898 453.653 102.355 454.891 102.355H468.569C470.109 102.355 470.26 103.231 470.26 104.438C470.26 105.646 469.777 106.371 468.569 106.129C463.406 105.103 463.708 108.363 463.859 111.745C464.01 115.127 463.859 117.965 463.859 121.075C463.859 122.977 463.013 123.188 461.473 123.188C459.934 123.188 459.3 122.766 459.36 121.165C459.511 119.052 459.45 116.757 459.45 114.493Z" fill="#294F7E"/>
<path d="M258.907 102.657C260.93 102.657 262.983 102.657 264.946 102.657C266.425 102.657 267.15 103.05 267.12 104.68C267.089 106.31 266.365 106.733 265.097 106.461C260.749 105.525 260.839 108.213 260.96 111.172C261.081 114.13 260.96 117.663 260.96 120.894C260.96 122.615 260.628 123.49 258.605 123.521C256.582 123.551 256.401 122.283 256.431 120.743C256.431 117.029 256.431 113.315 256.431 109.601C256.431 107.035 255.616 106.22 253.14 106.582C251.932 106.582 250.121 107.367 250.121 104.861C250.121 102.355 252.053 102.657 253.623 102.657C255.193 102.657 257.095 102.657 258.907 102.657Z" fill="#2A507F"/>
<path d="M398.551 112.681C398.551 110.024 398.551 107.397 398.551 104.771C398.551 103.08 399.094 102.476 400.845 102.476C402.597 102.476 403.08 103.231 403.05 104.891C403.05 108.213 403.261 111.594 403.05 114.915C402.838 118.237 403.653 120.26 407.579 119.595C408.896 119.52 410.216 119.52 411.534 119.595C412.953 119.595 413.436 120.048 413.436 121.437C413.436 122.826 413.044 123.4 411.594 123.37C407.88 123.37 404.136 123.37 400.423 123.37C398.883 123.37 398.641 122.585 398.641 121.347C398.551 118.418 398.551 115.55 398.551 112.681Z" fill="#274E7D"/>
<path d="M424.547 113.164C424.547 115.7 424.547 118.206 424.547 120.712C424.547 122.433 424.305 123.369 422.222 123.369C420.139 123.369 420.078 122.494 420.078 120.954C420.078 115.549 420.078 110.175 420.078 104.77C420.078 103.08 420.622 102.446 422.373 102.476C424.124 102.506 424.607 103.291 424.547 104.921C424.487 107.669 424.547 110.417 424.547 113.164Z" fill="#2B517F"/>
<path d="M104.318 112.742C104.318 110.085 104.318 107.458 104.318 104.831C104.318 103.14 104.831 102.506 106.582 102.476C108.333 102.446 108.786 103.231 108.756 104.831C108.756 110.246 108.756 115.65 108.756 121.045C108.756 122.705 108.333 123.37 106.552 123.339C104.771 123.309 104.257 122.675 104.318 121.014C104.378 118.267 104.318 115.489 104.318 112.742Z" fill="#294F7E"/>
<path fill-rule="evenodd" clip-rule="evenodd" d="M65.8515 119.173C65.7005 122.796 67.0894 124.004 71.0749 122.977C70.2892 121.682 70.3238 120.261 70.3578 118.869C70.3943 117.372 70.43 115.91 69.4445 114.674C68.4783 113.587 68.6594 113.255 69.4445 112.258C70.2057 111.476 70.7211 110.488 70.9269 109.416C71.1326 108.344 71.0197 107.235 70.6021 106.226C70.1846 105.218 69.4806 104.354 68.5773 103.741C67.674 103.128 66.6108 102.793 65.5193 102.778C62.4094 102.506 59.1486 102.506 56.1292 102.506C54.68 102.446 54.2573 103.08 54.2573 104.438V121.347C54.2271 123.007 54.9517 123.339 56.401 123.339C58.4698 123.451 58.5195 122.605 58.6114 121.041C58.6187 120.916 58.6263 120.786 58.6353 120.652C58.6716 120.108 58.5906 119.517 58.5096 118.926C58.321 117.549 58.132 116.171 59.4203 115.368C60.0755 114.967 60.8277 114.751 61.5961 114.745C62.3645 114.739 63.1199 114.943 63.7813 115.334C64.4427 115.725 64.9849 116.29 65.3496 116.966C65.7144 117.642 65.8879 118.405 65.8515 119.173ZM58.4843 109.058C58.3937 111.896 59.8732 111.866 61.0205 111.715C61.29 111.715 61.5566 111.718 61.8184 111.721C64.3431 111.752 66.4251 111.777 66.4251 108.877C66.4251 106.194 64.5372 106.142 62.6105 106.089C62.2386 106.078 61.8652 106.068 61.5036 106.039C59.2693 105.857 58.5749 106.22 58.4843 109.058Z" fill="#264D7C"/>
<path fill-rule="evenodd" clip-rule="evenodd" d="M377.797 123.246L377.796 123.246C376.421 123.373 375.206 123.485 374.124 122.403C373.109 121.388 372.583 121.958 372.069 122.515C371.848 122.753 371.63 122.989 371.377 123.098C366.425 125.242 361.232 122.705 360.96 117.995C360.96 116.14 361.997 115.003 362.986 113.919C363.607 113.238 364.209 112.579 364.523 111.775C364.889 110.841 364.537 109.894 364.172 108.91C363.724 107.701 363.254 106.437 364.07 105.072C365.009 103.897 366.338 103.095 367.816 102.813C369.295 102.531 370.825 102.786 372.132 103.533C372.7 103.873 373.186 104.336 373.554 104.888C373.922 105.44 374.162 106.067 374.257 106.723C374.353 107.379 374.301 108.048 374.105 108.682C373.91 109.316 373.576 109.898 373.128 110.386C370.501 112.772 371.709 114.01 373.702 115.519C374.28 114.916 374.677 114.163 374.849 113.345C375.349 112.108 376.423 112.363 377.291 112.568L377.291 112.568C377.418 112.599 377.541 112.628 377.657 112.651C378.563 112.832 378.321 113.979 378.14 114.764C377.023 119.595 377.023 119.595 379.257 123.158C378.751 123.158 378.265 123.203 377.797 123.246ZM368.176 120.35C366.274 120.35 365.157 119.505 365.157 117.633C365.157 115.761 366.214 114.613 367.301 114.795C368.2 115.107 369.003 115.646 369.633 116.361C370.262 117.075 370.697 117.939 370.894 118.871C371.135 120.018 369.293 120.26 368.176 120.35ZM367.756 108.682C368.017 109.069 368.398 109.36 368.84 109.511C369.313 109.44 369.745 109.203 370.06 108.844C370.375 108.485 370.553 108.026 370.561 107.548C370.652 106.612 370.32 105.918 369.233 105.827C368.146 105.737 367.391 106.159 367.391 107.367C367.366 107.834 367.494 108.295 367.756 108.682Z" fill="#274E7D"/>
<path fill-rule="evenodd" clip-rule="evenodd" d="M28.8573 119.169C28.364 120.547 27.8635 121.946 27.355 123.369C28.0651 123.239 28.7984 123.298 29.478 123.353C30.8502 123.463 32.0038 123.555 32.3067 122.041C32.9058 119.045 34.6462 119.055 36.5616 119.066C37.0595 119.069 37.5691 119.071 38.0736 119.022C40.5193 118.78 41.4251 119.776 42.029 122.041C42.5333 123.932 44.0486 123.612 45.2907 123.35C45.5358 123.298 45.7703 123.248 45.9843 123.219C47.6183 122.985 46.9964 122.048 46.5185 121.328C46.3782 121.116 46.2504 120.924 46.1956 120.773C45.4276 118.404 44.5922 116.057 43.7596 113.718C42.6611 110.632 41.5676 107.56 40.6401 104.469C40.5753 104.138 40.4455 103.824 40.258 103.544C40.0705 103.264 39.8292 103.025 39.5482 102.839C39.2671 102.654 38.9519 102.526 38.621 102.464C38.2901 102.401 37.95 102.405 37.6207 102.476C37.4131 102.493 37.2068 102.503 37.0037 102.513C35.789 102.571 34.6917 102.623 34.1485 104.227C32.4561 109.114 30.7072 114 28.8573 119.169ZM39.6739 115.066L37.3188 107.699C37.0403 108.442 36.736 109.139 36.446 109.803C35.6045 111.731 34.8839 113.382 35.2657 115.066C35.477 115.912 38.0133 115.549 39.6739 115.066Z" fill="#264D7C"/>
<path fill-rule="evenodd" clip-rule="evenodd" d="M7.36716 104.65V112.892C7.36716 113.622 7.374 114.35 7.38078 115.073C7.3987 116.979 7.41626 118.848 7.30677 120.622C7.24639 122.433 7.69928 123.128 9.69204 123.158C11.6848 123.188 11.9263 122.101 11.6848 120.682C10.9903 116.697 12.4094 114.885 16.5761 115.7C16.9359 115.761 17.3032 115.761 17.6631 115.7C18.4538 115.677 19.231 115.488 19.9453 115.148C20.6595 114.808 21.2952 114.323 21.8119 113.724C22.3287 113.125 22.7152 112.425 22.947 111.668C23.1787 110.912 23.2507 110.115 23.1582 109.33C23.3023 108.523 23.2699 107.694 23.0634 106.901C22.8568 106.108 22.481 105.369 21.9617 104.735C21.4425 104.101 20.792 103.587 20.0552 103.228C19.3184 102.87 18.5126 102.675 17.6932 102.657C16.2951 102.543 14.7743 102.552 13.2536 102.561C11.9501 102.568 10.6466 102.576 9.4203 102.506C7.88044 102.446 7.36716 103.11 7.36716 104.65ZM11.6894 110.031C11.7084 111.506 11.7259 112.861 14.0399 112.289C16.6365 112.409 18.8406 112.107 18.7802 109.088C18.7246 106.309 17.0069 106.216 14.8978 106.101C14.7151 106.091 14.5295 106.081 14.3418 106.069C11.9867 105.918 11.5036 107.337 11.6546 109.088C11.6812 109.396 11.6853 109.716 11.6894 110.031Z" fill="#264D7C"/>
</svg>
